<svg viewBox="0 0 800 500" xmlns="http://www.w3.org/2000/svg">
  <defs>
    <marker id="d-amber" markerWidth="6" markerHeight="4" refX="6" refY="2" orient="auto">
      <polygon points="0,0 6,2 0,4" fill="#F59E0B"/>
    </marker>
    <marker id="d-cyan" markerWidth="6" markerHeight="4" refX="6" refY="2" orient="auto">
      <polygon points="0,0 6,2 0,4" fill="#06B6D4"/>
    </marker>
    <marker id="d-slate" markerWidth="6" markerHeight="4" refX="6" refY="2" orient="auto">
      <polygon points="0,0 6,2 0,4" fill="#475569"/>
    </marker>
  </defs>

  <!-- Background -->
  <rect width="800" height="500" fill="#000000"/>

  <!-- Layer labels -->
  <text x="15" y="45" font-family="monospace" font-size="9" fill="#333333">ENTRY</text>
  <text x="15" y="165" font-family="monospace" font-size="9" fill="#333333">CORE</text>
  <text x="15" y="250" font-family="monospace" font-size="9" fill="#333333">MID</text>
  <text x="15" y="405" font-family="monospace" font-size="9" fill="#333333">LEAF</text>

  <!-- ═══════════════════════════════════════ -->
  <!-- Layer 1: Entry Points (y=40) — amber -->
  <!-- ═══════════════════════════════════════ -->

  <!-- agent-entry.mjs -->
  <rect x="135" y="22" width="130" height="40" rx="8" ry="8" fill="#111111" stroke="#F59E0B" stroke-width="2"/>
  <text x="200" y="47" text-anchor="middle" font-family="monospace" font-size="11" fill="#F59E0B">agent-entry.mjs</text>

  <!-- swarm.mjs -->
  <rect x="480" y="22" width="100" height="40" rx="8" ry="8" fill="#111111" stroke="#F59E0B" stroke-width="2"/>
  <text x="530" y="47" text-anchor="middle" font-family="monospace" font-size="11" fill="#F59E0B">swarm.mjs</text>

  <!-- ═══════════════════════════════════════ -->
  <!-- Layer 2: Core (y=160) — cyan, larger -->
  <!-- ═══════════════════════════════════════ -->

  <!-- orchestration.mjs -->
  <rect x="170" y="142" width="160" height="44" rx="8" ry="8" fill="#111111" stroke="#06B6D4" stroke-width="2"/>
  <text x="250" y="169" text-anchor="middle" font-family="monospace" font-size="12" fill="#06B6D4">orchestration.mjs</text>

  <!-- isolation.mjs -->
  <rect x="460" y="142" width="140" height="44" rx="8" ry="8" fill="#111111" stroke="#06B6D4" stroke-width="2"/>
  <text x="530" y="169" text-anchor="middle" font-family="monospace" font-size="12" fill="#06B6D4">isolation.mjs</text>

  <!-- ═══════════════════════════════════════ -->
  <!-- Layer 3: Mid (y=280) — slate -->
  <!-- ═══════════════════════════════════════ -->

  <!-- cli.mjs -->
  <rect x="20" y="262" width="80" height="40" rx="8" ry="8" fill="#111111" stroke="#475569" stroke-width="1.5"/>
  <text x="60" y="287" text-anchor="middle" font-family="monospace" font-size="11" fill="#E2E8F0">cli.mjs</text>

  <!-- agent-spawn.mjs -->
  <rect x="130" y="262" width="140" height="40" rx="8" ry="8" fill="#111111" stroke="#475569" stroke-width="1.5"/>
  <text x="200" y="287" text-anchor="middle" font-family="monospace" font-size="11" fill="#E2E8F0">agent-spawn.mjs</text>

  <!-- lifecycle.mjs -->
  <rect x="300" y="262" width="110" height="40" rx="8" ry="8" fill="#111111" stroke="#475569" stroke-width="1.5"/>
  <text x="355" y="287" text-anchor="middle" font-family="monospace" font-size="11" fill="#E2E8F0">lifecycle.mjs</text>

  <!-- context-bridge.mjs -->
  <rect x="440" y="262" width="140" height="40" rx="8" ry="8" fill="#111111" stroke="#475569" stroke-width="1.5"/>
  <text x="510" y="287" text-anchor="middle" font-family="monospace" font-size="11" fill="#E2E8F0">context-bridge.mjs</text>

  <!-- telemetry.mjs -->
  <rect x="610" y="262" width="120" height="40" rx="8" ry="8" fill="#111111" stroke="#475569" stroke-width="1.5"/>
  <text x="670" y="287" text-anchor="middle" font-family="monospace" font-size="11" fill="#E2E8F0">telemetry.mjs</text>

  <!-- ═══════════════════════════════════════ -->
  <!-- Layer 4: Leaf (y=400) — dim -->
  <!-- ═══════════════════════════════════════ -->

  <!-- output.mjs -->
  <rect x="220" y="385" width="120" height="40" rx="8" ry="8" fill="#111111" stroke="#333333" stroke-width="1.5"/>
  <text x="280" y="410" text-anchor="middle" font-family="monospace" font-size="11" fill="#64748B">output.mjs</text>

  <!-- config.mjs -->
  <rect x="445" y="385" width="110" height="40" rx="8" ry="8" fill="#111111" stroke="#333333" stroke-width="1.5"/>
  <text x="500" y="410" text-anchor="middle" font-family="monospace" font-size="11" fill="#64748B">config.mjs</text>

  <!-- ═══════════════════════════════════════ -->
  <!-- EDGES: Entry → Core (thick, cyan) -->
  <!-- ═══════════════════════════════════════ -->

  <!-- swarm → orchestration (thick, cyan) -->
  <path d="M 490,62 Q 380,78 280,142" fill="none" stroke="#06B6D4" stroke-width="2.5" opacity="0.8" marker-end="url(#d-cyan)"/>

  <!-- swarm → isolation (thick, cyan) -->
  <path d="M 555,62 Q 548,102 530,142" fill="none" stroke="#06B6D4" stroke-width="2.5" opacity="0.8" marker-end="url(#d-cyan)"/>

  <!-- ═══════════════════════════════════════ -->
  <!-- EDGES: Entry → Mid (medium) -->
  <!-- ═══════════════════════════════════════ -->

  <!-- swarm → agent-spawn (medium) -->
  <path d="M 506,62 Q 350,200 200,262" fill="none" stroke="#475569" stroke-width="1.5" opacity="0.5" marker-end="url(#d-slate)"/>

  <!-- swarm → lifecycle (medium) -->
  <path d="M 530,62 Q 480,140 370,262" fill="none" stroke="#475569" stroke-width="1.5" opacity="0.5" marker-end="url(#d-slate)"/>

  <!-- swarm → cli (medium) -->
  <path d="M 498,62 Q 190,90 60,262" fill="none" stroke="#475569" stroke-width="1.5" opacity="0.45" marker-end="url(#d-slate)"/>

  <!-- agent-entry → cli (medium) -->
  <path d="M 155,62 Q 70,140 60,262" fill="none" stroke="#475569" stroke-width="1.5" opacity="0.5" marker-end="url(#d-slate)"/>

  <!-- agent-entry → context-bridge (medium) -->
  <path d="M 230,62 Q 420,100 510,262" fill="none" stroke="#475569" stroke-width="1.5" opacity="0.5" marker-end="url(#d-slate)"/>

  <!-- agent-entry → telemetry (medium) -->
  <path d="M 250,62 Q 540,90 670,262" fill="none" stroke="#475569" stroke-width="1.5" opacity="0.45" marker-end="url(#d-slate)"/>

  <!-- agent-entry → lifecycle (medium) -->
  <path d="M 210,62 Q 400,110 340,262" fill="none" stroke="#475569" stroke-width="1.5" opacity="0.5" marker-end="url(#d-slate)"/>

  <!-- ═══════════════════════════════════════ -->
  <!-- EDGES: Core → Mid (thin, cyan) -->
  <!-- ═══════════════════════════════════════ -->

  <!-- orchestration → agent-spawn (thin, cyan) -->
  <path d="M 225,186 Q 215,220 200,262" fill="none" stroke="#06B6D4" stroke-width="1" opacity="0.5" marker-end="url(#d-cyan)"/>

  <!-- orchestration → context-bridge (thin, cyan) -->
  <path d="M 300,186 Q 420,210 490,262" fill="none" stroke="#06B6D4" stroke-width="1" opacity="0.5" marker-end="url(#d-cyan)"/>

  <!-- orchestration → isolation (thin, cyan, dashed) -->
  <path d="M 330,164 Q 395,145 460,164" fill="none" stroke="#06B6D4" stroke-width="1" opacity="0.4" stroke-dasharray="4 3" marker-end="url(#d-cyan)"/>

  <!-- ═══════════════════════════════════════ -->
  <!-- Footnote: utility imports -->
  <!-- ═══════════════════════════════════════ -->
  <text x="400" y="460" text-anchor="middle" font-family="monospace" font-size="9" fill="#64748B" font-style="italic">* all modules import output.mjs and config.mjs</text>
</svg>
